<?xml version="1.0" standalone="no"?>
<svg xmlns:xlink="http://www.w3.org/1999/xlink" id="wave" style="transform:rotate(0deg); transition: 0.3s" viewBox="0 0 1440 160" version="1.1" xmlns="http://www.w3.org/2000/svg"><defs><linearGradient id="sw-gradient-0" x1="0" x2="0" y1="1" y2="0"><stop stop-color="rgba(255, 255, 255, 1)" offset="0%"/><stop stop-color="rgba(255, 255, 255, 0.45)" offset="100%"/></linearGradient></defs><path style="transform:translate(0, 0px); opacity:1" fill="url(#sw-gradient-0)" d="M0,128L40,122.7C80,117,160,107,240,85.3C320,64,400,32,480,37.3C560,43,640,85,720,85.3C800,85,880,43,960,42.7C1040,43,1120,85,1200,106.7C1280,128,1360,128,1440,128C1520,128,1600,128,1680,117.3C1760,107,1840,85,1920,77.3C2000,69,2080,75,2160,72C2240,69,2320,59,2400,66.7C2480,75,2560,101,2640,96C2720,91,2800,53,2880,37.3C2960,21,3040,27,3120,24C3200,21,3280,11,3360,21.3C3440,32,3520,64,3600,69.3C3680,75,3760,53,3840,61.3C3920,69,4000,107,4080,120C4160,133,4240,123,4320,98.7C4400,75,4480,37,4560,42.7C4640,48,4720,96,4800,101.3C4880,107,4960,69,5040,69.3C5120,69,5200,107,5280,101.3C5360,96,5440,48,5520,34.7C5600,21,5680,43,5720,53.3L5760,64L5760,160L5720,160C5680,160,5600,160,5520,160C5440,160,5360,160,5280,160C5200,160,5120,160,5040,160C4960,160,4880,160,4800,160C4720,160,4640,160,4560,160C4480,160,4400,160,4320,160C4240,160,4160,160,4080,160C4000,160,3920,160,3840,160C3760,160,3680,160,3600,160C3520,160,3440,160,3360,160C3280,160,3200,160,3120,160C3040,160,2960,160,2880,160C2800,160,2720,160,2640,160C2560,160,2480,160,2400,160C2320,160,2240,160,2160,160C2080,160,2000,160,1920,160C1840,160,1760,160,1680,160C1600,160,1520,160,1440,160C1360,160,1280,160,1200,160C1120,160,1040,160,960,160C880,160,800,160,720,160C640,160,560,160,480,160C400,160,320,160,240,160C160,160,80,160,40,160L0,160Z"/></svg>