<?xml version="1.0" standalone="no"?>
<svg xmlns:xlink="http://www.w3.org/1999/xlink" id="wave" style="transform:rotate(0deg); transition: 0.3s" viewBox="0 0 1440 100" version="1.1" xmlns="http://www.w3.org/2000/svg"><defs><linearGradient id="sw-gradient-0" x1="0" x2="0" y1="1" y2="0"><stop stop-color="rgba(243, 106, 62, 1)" offset="0%"/><stop stop-color="rgba(255, 179, 11, 1)" offset="100%"/></linearGradient></defs><path style="transform:translate(0, 0px); opacity:1" fill="url(#sw-gradient-0)" d="M0,80L48,76.7C96,73,192,67,288,53.3C384,40,480,20,576,23.3C672,27,768,53,864,53.3C960,53,1056,27,1152,26.7C1248,27,1344,53,1440,66.7C1536,80,1632,80,1728,80C1824,80,1920,80,2016,73.3C2112,67,2208,53,2304,48.3C2400,43,2496,47,2592,45C2688,43,2784,37,2880,41.7C2976,47,3072,63,3168,60C3264,57,3360,33,3456,23.3C3552,13,3648,17,3744,15C3840,13,3936,7,4032,13.3C4128,20,4224,40,4320,43.3C4416,47,4512,33,4608,38.3C4704,43,4800,67,4896,75C4992,83,5088,77,5184,61.7C5280,47,5376,23,5472,26.7C5568,30,5664,60,5760,63.3C5856,67,5952,43,6048,43.3C6144,43,6240,67,6336,63.3C6432,60,6528,30,6624,21.7C6720,13,6816,27,6864,33.3L6912,40L6912,100L6864,100C6816,100,6720,100,6624,100C6528,100,6432,100,6336,100C6240,100,6144,100,6048,100C5952,100,5856,100,5760,100C5664,100,5568,100,5472,100C5376,100,5280,100,5184,100C5088,100,4992,100,4896,100C4800,100,4704,100,4608,100C4512,100,4416,100,4320,100C4224,100,4128,100,4032,100C3936,100,3840,100,3744,100C3648,100,3552,100,3456,100C3360,100,3264,100,3168,100C3072,100,2976,100,2880,100C2784,100,2688,100,2592,100C2496,100,2400,100,2304,100C2208,100,2112,100,2016,100C1920,100,1824,100,1728,100C1632,100,1536,100,1440,100C1344,100,1248,100,1152,100C1056,100,960,100,864,100C768,100,672,100,576,100C480,100,384,100,288,100C192,100,96,100,48,100L0,100Z"/></svg>