<?xml version="1.0" standalone="no"?>
<svg viewBox="0 0 200 200" xmlns="http://www.w3.org/2000/svg">
  <path fill="#D0E2FF" d="M36.6,-63.5C50.1,-55.5,65.6,-51.2,75.5,-41.2C85.3,-31.3,89.5,-15.6,87.8,-1C86.2,13.7,78.7,27.4,70.7,40.6C62.7,53.7,54.1,66.3,42.2,74.3C30.4,82.2,15.2,85.5,1.1,83.5C-12.9,81.5,-25.8,74.3,-40,67.7C-54.2,61.1,-69.7,55.1,-74.4,44C-79.1,32.8,-73,16.4,-69.9,1.8C-66.8,-12.8,-66.8,-25.7,-63.2,-38.9C-59.7,-52,-52.6,-65.5,-41.5,-74.9C-30.4,-84.4,-15.2,-89.7,-1.8,-86.5C11.5,-83.4,23,-71.6,36.6,-63.5Z" transform="translate(100 100)" />
</svg>
