<?xml version="1.0" standalone="no"?>
<svg xmlns:xlink="http://www.w3.org/1999/xlink" id="wave" style="transform:rotate(0deg); transition: 0.3s" viewBox="0 0 1440 160" version="1.1" xmlns="http://www.w3.org/2000/svg"><defs><linearGradient id="sw-gradient-0" x1="0" x2="0" y1="1" y2="0"><stop stop-color="rgba(243, 106, 62, 1)" offset="0%"/><stop stop-color="rgba(255, 179, 11, 1)" offset="100%"/></linearGradient></defs><path style="transform:translate(0, 0px); opacity:1" fill="url(#sw-gradient-0)" d="M0,128L20,122.7C40,117,80,107,120,85.3C160,64,200,32,240,37.3C280,43,320,85,360,85.3C400,85,440,43,480,42.7C520,43,560,85,600,106.7C640,128,680,128,720,128C760,128,800,128,840,117.3C880,107,920,85,960,77.3C1000,69,1040,75,1080,72C1120,69,1160,59,1200,66.7C1240,75,1280,101,1320,96C1360,91,1400,53,1440,37.3C1480,21,1520,27,1560,24C1600,21,1640,11,1680,21.3C1720,32,1760,64,1800,69.3C1840,75,1880,53,1920,61.3C1960,69,2000,107,2040,120C2080,133,2120,123,2160,98.7C2200,75,2240,37,2280,42.7C2320,48,2360,96,2400,101.3C2440,107,2480,69,2520,69.3C2560,69,2600,107,2640,101.3C2680,96,2720,48,2760,34.7C2800,21,2840,43,2860,53.3L2880,64L2880,160L2860,160C2840,160,2800,160,2760,160C2720,160,2680,160,2640,160C2600,160,2560,160,2520,160C2480,160,2440,160,2400,160C2360,160,2320,160,2280,160C2240,160,2200,160,2160,160C2120,160,2080,160,2040,160C2000,160,1960,160,1920,160C1880,160,1840,160,1800,160C1760,160,1720,160,1680,160C1640,160,1600,160,1560,160C1520,160,1480,160,1440,160C1400,160,1360,160,1320,160C1280,160,1240,160,1200,160C1160,160,1120,160,1080,160C1040,160,1000,160,960,160C920,160,880,160,840,160C800,160,760,160,720,160C680,160,640,160,600,160C560,160,520,160,480,160C440,160,400,160,360,160C320,160,280,160,240,160C200,160,160,160,120,160C80,160,40,160,20,160L0,160Z"/></svg>