<?xml version="1.0" encoding="UTF-8"?>
<svg xmlns="http://www.w3.org/2000/svg" xmlns:xlink="http://www.w3.org/1999/xlink" viewBox="0 0 512 512" width="512px" height="512px">
<g id="surface12793101">
<path style=" stroke:none;fill-rule:nonzero;fill:rgb(100%,100%,100%);fill-opacity:1;" d="M 256 445.441406 C 151.375 445.441406 66.558594 360.625 66.558594 256 C 66.558594 151.375 151.375 66.558594 256 66.558594 C 360.625 66.558594 445.441406 151.375 445.441406 256 C 445.441406 360.625 360.625 445.441406 256 445.441406 Z M 256 445.441406 "/>
<path style=" stroke:none;fill-rule:nonzero;fill:rgb(0%,0%,0%);fill-opacity:1;" d="M 256 107.6875 C 217.984375 107.6875 179.96875 122.148438 151.039062 151.078125 C 93.183594 208.933594 93.183594 303.140625 151.039062 360.996094 C 179.96875 389.925781 218.113281 404.515625 256 404.515625 C 293.886719 404.515625 332.03125 389.925781 360.960938 360.996094 C 418.816406 303.140625 418.816406 208.933594 360.960938 151.078125 C 332.03125 122.148438 294.015625 107.6875 256 107.6875 Z M 256 122.917969 C 290.046875 122.917969 324.097656 135.96875 350.210938 161.828125 C 401.921875 213.792969 401.921875 298.277344 350.210938 350.246094 C 298.242188 402.214844 213.761719 402.214844 162.050781 350.246094 C 110.082031 298.277344 110.078125 213.792969 161.789062 161.828125 C 187.902344 135.96875 221.953125 122.917969 256 122.917969 Z M 256 199.714844 C 251.648438 199.714844 248.320312 203.042969 248.320312 207.398438 L 248.320312 248.355469 L 207.359375 248.355469 C 203.007812 248.355469 199.679688 251.683594 199.679688 256.035156 C 199.679688 260.386719 203.007812 263.714844 207.359375 263.714844 L 248.320312 263.714844 L 248.320312 304.675781 C 248.320312 309.027344 251.648438 312.355469 256 312.355469 C 260.351562 312.355469 263.679688 309.027344 263.679688 304.675781 L 263.679688 263.714844 L 304.640625 263.714844 C 308.992188 263.714844 312.320312 260.386719 312.320312 256.035156 C 312.320312 251.683594 308.992188 248.355469 304.640625 248.355469 L 263.679688 248.355469 L 263.679688 207.398438 C 263.679688 203.042969 260.351562 199.714844 256 199.714844 Z M 256 199.714844 "/>
</g>
</svg>
