<?xml version="1.0" encoding="UTF-8"?>
<svg xmlns="http://www.w3.org/2000/svg" viewBox="0 0 512 512" width="512px" height="512px">
<g id="surface30183712">
<path style=" stroke:none;fill-rule:nonzero;fill:rgb(100%,100%,100%);fill-opacity:1;" d="M 74.238281 256 C 74.238281 155.617188 155.617188 74.238281 256 74.238281 C 356.382812 74.238281 437.761719 155.617188 437.761719 256 C 437.761719 356.382812 356.382812 437.761719 256 437.761719 C 155.617188 437.761719 74.238281 356.382812 74.238281 256 Z M 256 427.519531 C 350.726562 427.519531 427.519531 350.726562 427.519531 256 C 427.519531 161.273438 350.726562 84.480469 256 84.480469 C 161.273438 84.480469 84.480469 161.273438 84.480469 256 C 84.480469 350.726562 161.273438 427.519531 256 427.519531 Z M 256 427.519531 "/>
<path style=" stroke:none;fill-rule:nonzero;fill:rgb(100%,100%,100%);fill-opacity:1;" d="M 256 108 C 209.734375 108 172 145.734375 172 192 C 172 220.734375 186.625 246.234375 208.75 261.375 C 165.8125 279.65625 136 322.3125 136 372 L 160 372 C 160 318.421875 202.421875 276 256 276 C 309.578125 276 352 318.421875 352 372 L 376 372 C 376 322.3125 346.1875 279.65625 303.25 261.375 C 325.375 246.234375 340 220.734375 340 192 C 340 145.734375 302.265625 108 256 108 Z M 256 132 C 289.28125 132 316 158.71875 316 192 C 316 225.28125 289.28125 252 256 252 C 222.71875 252 196 225.28125 196 192 C 196 158.71875 222.71875 132 256 132 Z M 256 132 "/>
</g>
</svg>
