<?xml version="1.0" encoding="UTF-8"?>
<svg xmlns="http://www.w3.org/2000/svg" viewBox="0 0 512 512" width="512px" height="512px">
<g id="surface30786555">
<path style=" stroke:none;fill-rule:nonzero;fill:rgb(10.196079%,73.725492%,61.176473%);fill-opacity:1;" d="M 256 440.320312 C 154.203125 440.320312 71.679688 357.796875 71.679688 256 C 71.679688 154.203125 154.203125 71.679688 256 71.679688 C 357.796875 71.679688 440.320312 154.203125 440.320312 256 C 440.320312 357.796875 357.796875 440.320312 256 440.320312 Z M 256 440.320312 "/>
<path style=" stroke:none;fill-rule:nonzero;fill:rgb(100%,100%,100%);fill-opacity:1;" d="M 256 149.054688 L 250.585938 154.234375 L 152.652344 252.164062 L 163.484375 262.996094 L 173.136719 253.34375 L 173.136719 340.445312 L 240.933594 340.445312 L 240.933594 265.113281 L 271.066406 265.113281 L 271.066406 340.445312 L 338.863281 340.445312 L 338.863281 253.34375 L 348.515625 262.996094 L 359.347656 252.164062 L 261.414062 154.234375 Z M 256 170.476562 L 323.796875 238.277344 L 323.796875 325.378906 L 286.132812 325.378906 L 286.132812 250.046875 L 225.867188 250.046875 L 225.867188 325.378906 L 188.203125 325.378906 L 188.203125 238.277344 Z M 256 170.476562 "/>
</g>
</svg>
