<?xml version="1.0" encoding="UTF-8"?>
<svg xmlns="http://www.w3.org/2000/svg" viewBox="0 0 50 50" width="50px" height="50px">
<g id="surface30076659">
<path style=" stroke:none;fill-rule:nonzero;fill:rgb(100%,100%,100%);fill-opacity:1;" d="M 20.90625 30.25 C 20.265625 30.25 19.75 29.734375 19.75 29.09375 L 19.75 20.90625 C 19.75 20.265625 20.265625 19.75 20.90625 19.75 L 29.09375 19.75 C 29.734375 19.75 30.25 20.265625 30.25 20.90625 L 30.25 29.09375 C 30.25 29.734375 29.734375 30.25 29.09375 30.25 Z M 20.90625 30.25 "/>
<path style=" stroke:none;fill-rule:nonzero;fill:rgb(100%,100%,100%);fill-opacity:1;" d="M 20.3125 22 L 20.3125 22.375 L 29.6875 22.375 L 29.6875 22 Z M 20.3125 24.8125 L 20.3125 25.1875 L 29.6875 25.1875 L 29.6875 24.8125 Z M 20.3125 27.625 L 20.3125 28 L 29.6875 28 L 29.6875 27.625 Z M 20.3125 27.625 "/>
</g>
</svg>
