<?xml version="1.0" encoding="UTF-8"?>
<svg xmlns="http://www.w3.org/2000/svg" viewBox="0 0 208 208" width="208px" height="208px">
<g id="surface30793707">
<path style=" stroke:none;fill-rule:nonzero;fill:rgb(100%,100%,100%);fill-opacity:1;" d="M 65.875 152.878906 C 59.933594 152.878906 55.121094 148.066406 55.121094 142.125 L 55.121094 65.875 C 55.121094 59.933594 59.933594 55.121094 65.875 55.121094 L 142.125 55.121094 C 148.066406 55.121094 152.878906 59.933594 152.878906 65.875 L 152.878906 142.125 C 152.878906 148.066406 148.066406 152.878906 142.125 152.878906 Z M 137.964844 148.71875 C 143.90625 148.71875 148.71875 143.90625 148.71875 137.964844 L 148.71875 70.035156 C 148.71875 64.09375 143.90625 59.28125 137.964844 59.28125 L 70.035156 59.28125 C 64.09375 59.28125 59.28125 64.09375 59.28125 70.035156 L 59.28125 137.964844 C 59.28125 143.90625 64.09375 148.71875 70.035156 148.71875 Z M 137.964844 148.71875 "/>
<path style=" stroke:none;fill-rule:nonzero;fill:rgb(100%,100%,100%);fill-opacity:1;" d="M 67.601562 78.800781 L 67.601562 84.398438 L 140.398438 84.398438 L 140.398438 78.800781 Z M 67.601562 101.199219 L 67.601562 106.800781 L 140.398438 106.800781 L 140.398438 101.199219 Z M 67.601562 123.601562 L 67.601562 129.199219 L 140.398438 129.199219 L 140.398438 123.601562 Z M 67.601562 123.601562 "/>
</g>
</svg>
