<?xml version="1.0" encoding="iso-8859-1"?>
<!-- Generator: Adobe Illustrator 19.0.0, SVG Export Plug-In . SVG Version: 6.00 Build 0)  -->
<svg version="1.1" id="Capa_1" xmlns="http://www.w3.org/2000/svg" xmlns:xlink="http://www.w3.org/1999/xlink" x="0px" y="0px"
	 viewBox="0 0 482.8 482.8" style="enable-background:new 0 0 482.8 482.8;" xml:space="preserve">
<g>
	<g>
		<path fill="#fff" d="M482.286,422.2V59.6c0-32.9-26.7-59.6-59.6-59.6h-362.6c-32.9,0-59.6,26.7-59.6,59.6v363.6c0,32.9,26.7,59.6,59.6,59.6
			h363.6C456.586,482.8,483.286,456.1,482.286,422.2z M442.186,422.2c0,10.3-8.2,19.5-19.5,19.5h-362.6c-10.3,0-19.5-8.2-19.5-19.5
			V59.6c0-10.3,8.2-19.5,19.5-19.5h362.6c10.3,0,19.5,8.2,19.5,19.5V422.2z"/>
		<path fill="#fff" d="M350.786,83.2l-149,50.3c-8.2,3.1-13.4,11.3-13.4,19.5v146.8c-9.7-3.3-20.8-5.1-32.7-5.1c-41.1,0-71.9,21.6-71.9,50.3
			c0,28.8,30.8,50.3,71.9,50.3c40.1,0,71.9-21.6,71.9-50.3c0-1-0.1-177.7-0.1-177.7l108.9-37v123.9c-7-1.7-14.6-2.6-22.6-2.6
			c-36,0-63.7,18.5-63.7,44.2s27.7,44.2,63.7,44.2c34.7,0,60.4-16.3,63.4-39.6c0.2-0.9,0.3-197.7,0.3-197.7
			C377.786,95.5,369.686,77.8,350.786,83.2z M154.686,355.4c-17.5,0-28.8-7.2-30.8-10.3c2.1-3.1,13.4-10.3,30.8-10.3
			s28.8,7.2,30.8,10.3C183.486,349.2,173.186,355.4,154.686,355.4z M314.786,300c-9.2,0-15.4-1-19.5-3.1c4.1-2.1,10.3-4.1,19.5-3.1
			c9.2,0,15.4,1,19.5,3.1C330.186,297.9,323.086,300,314.786,300z"/>
	</g>
</g>
<g>
</g>
<g>
</g>
<g>
</g>
<g>
</g>
<g>
</g>
<g>
</g>
<g>
</g>
<g>
</g>
<g>
</g>
<g>
</g>
<g>
</g>
<g>
</g>
<g>
</g>
<g>
</g>
<g>
</g>
</svg>
