<?xml version="1.0" standalone="no"?>
<svg viewBox="0 0 200 200" xmlns="http://www.w3.org/2000/svg">
  <path fill="#329AB4" d="M27.1,-49.5C36.9,-41.3,47.8,-37.6,58.6,-30.1C69.5,-22.6,80.3,-11.3,81,0.4C81.8,12.1,72.4,24.3,61.7,32C50.9,39.7,38.8,43,28.3,50.2C17.8,57.4,8.9,68.5,-3.1,73.9C-15.1,79.3,-30.3,79,-44.5,74C-58.8,68.9,-72.1,59.1,-75.4,46C-78.8,32.9,-72.3,16.4,-69,1.9C-65.7,-12.7,-65.7,-25.3,-63,-39.5C-60.2,-53.7,-54.7,-69.5,-43.8,-77C-32.8,-84.5,-16.4,-83.9,-3.9,-77.2C8.7,-70.5,17.3,-57.7,27.1,-49.5Z" transform="translate(100 100)" />
</svg>
