<?xml version="1.0" standalone="no"?>
<svg viewBox="0 0 200 200" xmlns="http://www.w3.org/2000/svg">
  <path fill="#0F62FE" d="M27.6,-52.7C35.4,-43.2,41.2,-35.2,48.6,-26.6C55.9,-18.1,64.9,-9,65.7,0.4C66.5,9.9,59,19.8,52.4,29.7C45.8,39.7,40.1,49.6,31.5,60.1C22.9,70.5,11.5,81.5,-1.5,84.2C-14.5,86.8,-29,81.1,-42.1,73.2C-55.2,65.4,-67,55.4,-72.8,42.9C-78.6,30.3,-78.4,15.1,-74.8,2.1C-71.1,-10.9,-64,-21.9,-55.6,-30C-47.2,-38,-37.6,-43.2,-28.1,-51.8C-18.6,-60.3,-9.3,-72.1,0.3,-72.6C9.9,-73,19.7,-62.2,27.6,-52.7Z" transform="translate(100 100)" />
</svg>
