<?xml version="1.0" encoding="UTF-8"?>
<svg xmlns="http://www.w3.org/2000/svg" xmlns:xlink="http://www.w3.org/1999/xlink" viewBox="0 0 500 500" width="500px" height="500px">
<g id="surface32432288">
<path style="fill-rule:nonzero;fill:rgb(0%,0%,0%);fill-opacity:1;stroke-width:10;stroke-linecap:butt;stroke-linejoin:round;stroke:rgb(80.000001%,80.000001%,80.000001%);stroke-opacity:1;stroke-miterlimit:10;" d="M 130.720346 68.799432 C 130.720346 83.325341 125.425229 96.615913 116.638074 106.855232 L 161.356991 151.682562 L 151.682562 161.356991 L 106.424433 116.207275 C 96.804209 123.168528 85.005742 127.279662 72.240116 127.279662 C 39.975851 127.279662 13.759886 101.063697 13.759886 68.799432 C 13.759886 36.536592 39.975851 10.320628 72.240116 10.320628 C 104.502956 10.320628 130.720346 36.536592 130.720346 68.799432 Z M 20.63983 68.799432 C 20.63983 97.340568 43.69898 120.399718 72.240116 120.399718 C 100.781253 120.399718 123.840403 97.340568 123.840403 68.799432 C 123.840403 40.258295 100.781253 17.200571 72.240116 17.200571 C 43.69898 17.200571 20.63983 40.258295 20.63983 68.799432 Z M 20.63983 68.799432 " transform="matrix(2.738372,0,0,2.738372,14.5,14.5)"/>
<path style=" stroke:none;fill-rule:nonzero;fill:rgb(100%,100%,100%);fill-opacity:1;" d="M 212.320312 42.761719 C 123.96875 42.761719 52.179688 114.550781 52.179688 202.898438 C 52.179688 291.25 123.96875 363.039062 212.320312 363.039062 C 247.277344 363.039062 279.585938 351.78125 305.929688 332.71875 L 429.863281 456.355469 L 456.355469 429.863281 L 333.898438 307.109375 C 357.960938 279.070312 372.460938 242.675781 372.460938 202.898438 C 372.460938 114.550781 300.667969 42.761719 212.320312 42.761719 Z M 212.320312 61.601562 C 290.476562 61.601562 353.621094 124.742188 353.621094 202.898438 C 353.621094 281.054688 290.476562 344.199219 212.320312 344.199219 C 134.164062 344.199219 71.019531 281.054688 71.019531 202.898438 C 71.019531 124.742188 134.164062 61.601562 212.320312 61.601562 Z M 212.320312 61.601562 "/>
</g>
</svg>
